<?xml version="1.0" encoding="UTF-8"?>
<svg version="1.1" xmlns="http://www.w3.org/2000/svg" width="500" height="500">
<path d="M0 0 C0.74928772 0.00126892 1.49857544 0.00253784 2.27056885 0.00384521 C26.81858754 0.08306405 47.98626309 4.59818615 70.1875 15.1875 C71.1767749 15.64745361 71.1767749 15.64745361 72.18603516 16.11669922 C98.23403914 28.25649137 122.25541831 46.7080296 136.76953125 71.9375 C138.23443614 74.26197719 139.58559486 75.52465847 141.75 77.1875 C167.10744435 98.77622326 174.30038142 134.21774992 176.85546875 165.6796875 C179.67955285 206.78337746 168.92284838 252.22896107 142.125 284.375 C139.76991165 287.22802132 137.54402005 290.08568075 135.4375 293.125 C132.26257768 297.44642205 128.33270489 300.89095754 124.32519531 304.41967773 C121.88091041 306.57853576 120.01041713 308.45312431 118.1875 311.1875 C117.5275 311.1875 116.8675 311.1875 116.1875 311.1875 C116.1875 311.8475 116.1875 312.5075 116.1875 313.1875 C114.53515625 314.44921875 114.53515625 314.44921875 112.25 315.875 C108.99841982 317.96349551 105.9388909 320.12909031 102.9375 322.5625 C76.8671043 343.04959852 41.6610321 355.71536564 8.625 356.875 C7.58142334 356.91334961 6.53784668 356.95169922 5.46264648 356.99121094 C-27.50576393 358.01082648 -57.92259124 350.28144766 -87.11474609 335.06884766 C-88.52354902 334.33750187 -89.94223364 333.62522828 -91.36328125 332.91796875 C-97.8968869 329.5376938 -103.54492902 324.94573132 -109.28613281 320.39355469 C-111.40368649 318.72037568 -113.54703006 317.08120558 -115.6875 315.4375 C-122.44842268 310.14473389 -128.31748749 304.80353509 -133.8125 298.1875 C-134.29025879 297.62208496 -134.76801758 297.05666992 -135.26025391 296.47412109 C-142.57121573 287.80919497 -149.32368573 279.14849597 -154.8125 269.1875 C-155.24304688 268.41245117 -155.67359375 267.63740234 -156.1171875 266.83886719 C-171.58471275 238.7772727 -179.03282409 209.98040556 -179.0625 177.875 C-179.06350708 177.11905548 -179.06451416 176.36311096 -179.06555176 175.58425903 C-179.05471431 163.53795661 -178.3124947 152.00051376 -175.8125 140.1875 C-175.67328125 139.46933105 -175.5340625 138.75116211 -175.390625 138.01123047 C-170.03388635 110.44014622 -156.60315987 84.02518706 -137.8125 63.1875 C-137.08933594 62.31158203 -137.08933594 62.31158203 -136.3515625 61.41796875 C-130.76394255 54.72645315 -124.28477868 48.99951938 -117.8125 43.1875 C-116.78382813 42.25164062 -116.78382813 42.25164062 -115.734375 41.296875 C-111.39911903 37.44781596 -106.703562 34.28788575 -101.8125 31.1875 C-100.78511719 30.53394531 -99.75773437 29.88039063 -98.69921875 29.20703125 C-67.87273599 9.89972771 -36.20703125 -0.06336054 0 0 Z " fill="#A5BFFE" transform="translate(250.8125,75.8125)"/>
<path d="M0 0 C1.38096619 1.54928589 1.38096619 1.54928589 2.81225586 3.75341797 C3.35389877 4.5762326 3.89554169 5.39904724 4.45359802 6.24679565 C5.03480911 7.15277496 5.6160202 8.05875427 6.21484375 8.9921875 C6.82582413 9.92612335 7.4368045 10.8600592 8.06629944 11.82229614 C10.03325094 14.83355412 11.98563199 17.85394821 13.9375 20.875 C15.21842261 22.84308507 16.50031323 24.81054048 17.78320312 26.77734375 C19.68507923 29.69397451 21.58596236 32.61121198 23.48265076 35.53121948 C28.85194662 43.79589505 34.30395376 52.00322642 39.78988647 60.1907959 C41.55535604 62.83029601 43.30877224 65.477686 45.0625 68.125 C55.95888587 84.44715826 66.95385186 100.87390685 79.4140625 116.0546875 C79.93742188 116.69664062 80.46078125 117.33859375 81 118 C81.56460938 118.68320312 82.12921875 119.36640625 82.7109375 120.0703125 C84 122 84 122 84 125 C72.82323199 131.221261 61.59348602 137.29617073 50.125 142.96484375 C49.13064941 143.45651031 48.13629883 143.94817688 47.11181641 144.45474243 C43.06412274 146.45134893 39.01352146 148.4418867 34.95898438 150.42456055 C1.75159751 166.56061986 1.75159751 166.56061986 -27.51171875 188.78515625 C-29 190 -29 190 -31 190 C-31.57331055 188.84290527 -32.14662109 187.68581055 -32.73730469 186.49365234 C-47.12953887 157.3031657 -47.12953887 157.3031657 -62.52050781 128.63378906 C-64.18807847 125.66518308 -65.84089749 122.68862957 -67.4921875 119.7109375 C-70.01140133 115.16967087 -72.53168022 110.62900416 -75.0546875 106.08984375 C-75.53430939 105.22689445 -75.53430939 105.22689445 -76.02362061 104.34651184 C-77.70592277 101.3212775 -79.39181259 98.29810472 -81.08300781 95.27783203 C-95.7205362 69.13610695 -95.7205362 69.13610695 -101.35107422 56.63085938 C-102.93807038 53.11580566 -104.50276024 49.95826864 -107 47 C-105.59678039 43.61282418 -104.12653819 42.09454488 -101.0625 40.1171875 C-100.25901123 39.59463379 -99.45552246 39.07208008 -98.62768555 38.53369141 C-97.76054932 37.98632324 -96.89341309 37.43895508 -96 36.875 C-94.65772339 36.01720947 -94.65772339 36.01720947 -93.28833008 35.14208984 C-69.99274894 20.40595554 -46.5720879 10.20894128 -20 3 C-19.23300781 2.78472656 -18.46601563 2.56945312 -17.67578125 2.34765625 C-11.87220029 0.78559222 -6.00527813 0 0 0 Z " fill="#C6D5FB" transform="translate(264,141)"/>
<path d="M0 0 C0.74928772 0.00126892 1.49857544 0.00253784 2.27056885 0.00384521 C26.81858754 0.08306405 47.98626309 4.59818615 70.1875 15.1875 C71.1767749 15.64745361 71.1767749 15.64745361 72.18603516 16.11669922 C98.23403914 28.25649137 122.25541831 46.7080296 136.76953125 71.9375 C138.23443614 74.26197719 139.58559486 75.52465847 141.75 77.1875 C167.10744435 98.77622326 174.30038142 134.21774992 176.85546875 165.6796875 C179.67955285 206.78337746 168.92284838 252.22896107 142.125 284.375 C139.76991165 287.22802132 137.54402005 290.08568075 135.4375 293.125 C132.26257768 297.44642205 128.33270489 300.89095754 124.32519531 304.41967773 C121.88091041 306.57853576 120.01041713 308.45312431 118.1875 311.1875 C117.5275 311.1875 116.8675 311.1875 116.1875 311.1875 C116.1875 311.8475 116.1875 312.5075 116.1875 313.1875 C114.53515625 314.44921875 114.53515625 314.44921875 112.25 315.875 C108.99841982 317.96349551 105.9388909 320.12909031 102.9375 322.5625 C76.8671043 343.04959852 41.6610321 355.71536564 8.625 356.875 C7.58142334 356.91334961 6.53784668 356.95169922 5.46264648 356.99121094 C-27.50576393 358.01082648 -57.92259124 350.28144766 -87.11474609 335.06884766 C-88.52354902 334.33750187 -89.94223364 333.62522828 -91.36328125 332.91796875 C-97.8968869 329.5376938 -103.54492902 324.94573132 -109.28613281 320.39355469 C-111.40368649 318.72037568 -113.54703006 317.08120558 -115.6875 315.4375 C-122.44842268 310.14473389 -128.31748749 304.80353509 -133.8125 298.1875 C-134.29025879 297.62208496 -134.76801758 297.05666992 -135.26025391 296.47412109 C-142.57121573 287.80919497 -149.32368573 279.14849597 -154.8125 269.1875 C-155.24304688 268.41245117 -155.67359375 267.63740234 -156.1171875 266.83886719 C-171.58471275 238.7772727 -179.03282409 209.98040556 -179.0625 177.875 C-179.06350708 177.11905548 -179.06451416 176.36311096 -179.06555176 175.58425903 C-179.05471431 163.53795661 -178.3124947 152.00051376 -175.8125 140.1875 C-175.67328125 139.46933105 -175.5340625 138.75116211 -175.390625 138.01123047 C-170.03388635 110.44014622 -156.60315987 84.02518706 -137.8125 63.1875 C-137.08933594 62.31158203 -137.08933594 62.31158203 -136.3515625 61.41796875 C-130.76394255 54.72645315 -124.28477868 48.99951938 -117.8125 43.1875 C-116.78382813 42.25164062 -116.78382813 42.25164062 -115.734375 41.296875 C-111.39911903 37.44781596 -106.703562 34.28788575 -101.8125 31.1875 C-100.78511719 30.53394531 -99.75773437 29.88039063 -98.69921875 29.20703125 C-67.87273599 9.89972771 -36.20703125 -0.06336054 0 0 Z M-37.8125 17.1875 C-38.45251953 17.34847168 -39.09253906 17.50944336 -39.75195312 17.67529297 C-69.70965343 25.47958877 -96.66351245 41.80704334 -118.8125 63.1875 C-119.3701001 63.72101074 -119.9277002 64.25452148 -120.50219727 64.80419922 C-140.48050983 84.28408662 -154.19303378 110.22763517 -160.8125 137.1875 C-161.09867188 138.32058594 -161.38484375 139.45367187 -161.6796875 140.62109375 C-164.56197308 152.49336533 -165.0502311 163.97576307 -165.0625 176.125 C-165.06383942 176.90618195 -165.06517883 177.68736389 -165.06655884 178.49221802 C-165.0622728 190.0046651 -164.51478556 200.95299799 -161.8125 212.1875 C-161.5959375 213.22132813 -161.379375 214.25515625 -161.15625 215.3203125 C-156.58376096 235.73321 -147.72031709 255.06488026 -135.8125 272.1875 C-135.12671875 273.18007813 -134.4409375 274.17265625 -133.734375 275.1953125 C-124.72734412 287.70507761 -114.10989911 298.8904294 -101.8125 308.1875 C-101.16410156 308.70183594 -100.51570313 309.21617187 -99.84765625 309.74609375 C-97.87297916 311.28659237 -95.86016943 312.74522849 -93.8125 314.1875 C-92.85472656 314.86425781 -91.89695312 315.54101562 -90.91015625 316.23828125 C-76.07870429 326.39830456 -59.53626169 333.01267113 -42.20361328 337.55419922 C-40.67601829 337.95879197 -39.15282421 338.38065165 -37.63623047 338.82470703 C-26.34806735 342.12569106 -15.18628794 342.55398161 -3.5 342.5625 C-2.77842712 342.56449402 -2.05685425 342.56648804 -1.31341553 342.56854248 C14.78244907 342.56350666 30.95506428 340.81708544 46.06738281 334.99291992 C48.2079954 334.17971392 50.36195721 333.42418956 52.52734375 332.6796875 C92.54721049 318.72864234 125.64974203 289.94230225 145.1875 252.1875 C151.874131 238.12159893 157.23791114 223.50267294 160.1875 208.1875 C160.35813965 207.31722168 160.5287793 206.44694336 160.70458984 205.55029297 C162.43536814 195.75907715 162.58491925 186.09846726 162.5625 176.1875 C162.56218277 174.89440918 162.56218277 174.89440918 162.56185913 173.57519531 C162.5296255 160.41043195 161.82078695 147.91461024 158.1875 135.1875 C157.84847656 133.9190625 157.50945312 132.650625 157.16015625 131.34375 C154.83210012 123.58908616 151.54840559 116.32391476 148.125 109 C147.70138184 108.08992188 147.27776367 107.17984375 146.84130859 106.2421875 C144.7624217 101.92705747 142.9677581 98.28678782 139.1875 95.1875 C140.57046369 99.58589483 142.24087517 103.80954192 144.00512695 108.06347656 C149.96030665 122.49010908 153.46948949 136.84891841 156.1875 152.1875 C156.36095947 152.92371582 156.53441895 153.65993164 156.71313477 154.41845703 C157.31536505 157.93389498 157.36929035 161.39731664 157.390625 164.953125 C157.39632507 165.70478943 157.40202515 166.45645386 157.40789795 167.230896 C157.41732457 168.82448942 157.42387262 170.41810213 157.42773438 172.01171875 C157.43730232 174.38839624 157.46828731 176.76415529 157.5 179.140625 C157.60130469 193.57466336 155.43727266 207.14587517 151.3125 221 C151.05130371 221.89033936 150.79010742 222.78067871 150.52099609 223.69799805 C148.50919864 230.41113228 146.19235731 236.84860157 143.1875 243.1875 C142.91744141 243.77772949 142.64738281 244.36795898 142.36914062 244.97607422 C135.1172558 260.76453206 125.72266616 274.39004103 113.55712891 286.78710938 C112.31677642 288.05532005 111.10025751 289.34673308 109.88671875 290.640625 C82.31517289 319.47229636 42.01523014 334.42182278 2.70703125 335.390625 C-10.12225514 335.54013284 -22.34748246 335.35887181 -34.8125 332.1875 C-36.03694824 331.88150879 -36.03694824 331.88150879 -37.28613281 331.56933594 C-62.54494296 325.12087716 -89.45454286 314.51166541 -107.8125 295.1875 C-108.1115625 294.57003906 -108.410625 293.95257813 -108.71875 293.31640625 C-110.25036451 290.33522802 -112.42657364 288.28509649 -114.75 285.875 C-128.91629117 270.73520149 -140.26518945 252.9243202 -146.8125 233.1875 C-147.23015625 231.970625 -147.6478125 230.75375 -148.078125 229.5 C-149.21238078 226.11766969 -150.23830346 222.71280612 -151.21289062 219.28125 C-151.60044424 217.92796833 -152.00188276 216.57855221 -152.41992188 215.234375 C-156.06040779 203.2983556 -156.20995179 191.31016507 -156.25 178.9375 C-156.2561734 178.12488708 -156.2623468 177.31227417 -156.26870728 176.47503662 C-156.32159705 165.63386291 -155.3644006 155.76407097 -152.8125 145.1875 C-152.61922119 144.31109863 -152.42594238 143.43469727 -152.22680664 142.53173828 C-145.20542407 111.02291297 -127.06538391 80.53991168 -101.8125 60.1875 C-100.86890625 59.41792969 -99.9253125 58.64835937 -98.953125 57.85546875 C-78.06957875 41.13173252 -49.36704007 24.56283788 -21.8125 25.1875 C-22.3794458 25.30230713 -22.9463916 25.41711426 -23.53051758 25.53540039 C-49.10921531 30.8034952 -74.3490899 39.3334337 -94.8125 56.1875 C-95.33779297 56.61562988 -95.86308594 57.04375977 -96.40429688 57.48486328 C-120.55806002 77.23257055 -140.12873029 103.86513611 -148.8125 134.1875 C-149.04098633 134.96367676 -149.26947266 135.73985352 -149.50488281 136.53955078 C-160.60807395 175.8965321 -154.68111918 219.88630952 -134.88671875 255.34179688 C-114.40001655 290.54167611 -81.68518279 317.28090222 -42.3125 328.5 C-39.82011055 329.09531595 -37.31946121 329.65688551 -34.8125 330.1875 C-33.81041504 330.40962158 -33.81041504 330.40962158 -32.78808594 330.63623047 C6.74384594 339.14136357 49.86550256 331.12595918 83.8515625 309.26953125 C92.67825982 303.33262418 100.58923996 296.61665929 108.1875 289.1875 C108.97382813 288.45144531 109.76015625 287.71539062 110.5703125 286.95703125 C136.82309492 261.84766269 153.44102158 223.58360919 154.37109375 187.328125 C155.03444095 143.83388229 142.04678026 103.53324008 111.62890625 71.6875 C110.82324219 70.8625 110.01757812 70.0375 109.1875 69.1875 C108.30384766 68.2284375 108.30384766 68.2284375 107.40234375 67.25 C80.10315323 38.27395503 40.56694289 26.75592734 2.1875 24.1875 C0.58851542 24.0745898 -1.01044491 23.96133546 -2.609375 23.84765625 C-6.00943156 23.61051497 -9.41028717 23.39174026 -12.8125 23.1875 C33.37028815 21.59266338 74.64789671 36.77211792 109.8828125 66.27734375 C111.94084891 67.98307223 114.03417559 69.60475694 116.1875 71.1875 C106.7497888 49.86526358 80.39361357 34.26450003 59.625 25.9375 C57.15351861 25.0003101 54.67422735 24.08345324 52.1875 23.1875 C51.56488281 22.96078613 50.94226563 22.73407227 50.30078125 22.50048828 C32.65745892 16.1297938 15.8302714 13.9529677 -2.8125 13.9375 C-3.54516083 13.93682526 -4.27782166 13.93615051 -5.03268433 13.93545532 C-16.21796852 13.95179981 -26.92814269 14.4441977 -37.8125 17.1875 Z " fill="#F4F5F7" transform="translate(250.8125,75.8125)"/>
<path d="M0 0 C9.27057035 10.50492404 16.34944712 23.59830767 23.99316406 35.29663086 C32.26749263 47.95052719 40.70704239 60.45836767 49.44354248 72.79820251 C51.51407556 75.72722207 53.57113613 78.66558379 55.62722778 81.60475159 C65.02911821 95.01304747 74.53405941 108.40107481 85.09375 120.93017578 C90.58456625 127.58236171 93.71745602 133.54202558 93.39453125 142.296875 C92.89220877 145.73853004 91.64937006 148.29272734 90.06640625 151.359375 C88.67654378 154.80093921 88.18950926 158.29304507 87.625 161.9375 C85.53481989 174.37925394 80.06243943 180.76827106 70 188 C66.7538348 189.98182102 63.40841082 191.69073775 60 193.375 C57.98616735 194.39814328 55.97320346 195.42299763 53.9609375 196.44921875 C52.86233398 197.00657715 51.76373047 197.56393555 50.63183594 198.13818359 C44.32681351 201.35558728 38.08488519 204.69472327 31.83349609 208.01470947 C29.69555141 209.15003468 27.55691022 210.28403448 25.41796875 211.41748047 C24.39262024 211.96088829 24.39262024 211.96088829 23.34655762 212.51527405 C21.97954668 213.23960533 20.61244119 213.96375818 19.24523926 214.68772888 C15.63189842 216.60180102 12.0218544 218.52177884 8.41601562 220.44995117 C7.65783539 220.85421829 6.89965515 221.25848541 6.11849976 221.67500305 C4.67519306 222.44464907 3.23291531 223.2162292 1.79190063 223.99015808 C-8.41795178 229.42623992 -18.40055123 232.92570812 -30 234 C-31.40572266 234.14308594 -31.40572266 234.14308594 -32.83984375 234.2890625 C-42.58458862 234.82033984 -50.71527538 231.27785586 -58.125 225.0625 C-75.47163682 208.13019367 -84.54524623 184.28777414 -94.28735352 162.54467773 C-98.3522014 153.4939048 -102.6257516 144.59508476 -107.125 135.75 C-112.01109915 126.11344978 -116.67571829 116.40637188 -121.125 106.5625 C-121.65754395 105.3962207 -122.19008789 104.22994141 -122.73876953 103.02832031 C-134.22076334 77.33316092 -134.22076334 77.33316092 -129.9296875 64.8984375 C-124.78053498 53.78414655 -117.23878729 46.44819801 -107 40 C-105.93265625 39.31292969 -104.8653125 38.62585938 -103.765625 37.91796875 C-86.27557508 26.89603864 -67.0437433 18.35566964 -47.1953125 12.58984375 C-40.32212372 10.55935473 -33.68758498 7.9055032 -27.00976562 5.31640625 C-6.27427724 -2.60441697 -6.27427724 -2.60441697 0 0 Z M-29.73828125 14.8671875 C-32.89811701 15.96461549 -36.06654352 16.90190315 -39.28393555 17.81054688 C-47.1231034 20.02834825 -54.57242423 22.6196195 -62 26 C-62.6177832 26.27150879 -63.23556641 26.54301758 -63.87207031 26.82275391 C-75.53304663 31.95097831 -86.27641323 38.14435459 -97 45 C-98.2434384 45.78002952 -99.48692469 46.55998269 -100.73046875 47.33984375 C-107.24566679 50.97687816 -107.24566679 50.97687816 -111 57 C-110.22814501 59.0319444 -110.22814501 59.0319444 -108.6875 61.0625 C-105.63281373 65.78212788 -103.2617442 70.58730894 -100.9375 75.6875 C-96.13527108 86.06733911 -90.49921981 95.90102255 -84.81396484 105.81591797 C-67.22762812 136.68550121 -50.70627272 168.13721961 -35 200 C-31.47501228 198.45449916 -28.88062373 196.32307412 -25.96875 193.82421875 C-20.43518064 189.23886864 -14.68685008 185.45079394 -8.5 181.8125 C-6.87831909 180.85114136 -6.87831909 180.85114136 -5.22387695 179.87036133 C9.91363423 171.00010447 25.5933572 163.18638331 41.2890625 155.3671875 C42.48733925 154.76977501 42.48733925 154.76977501 43.70982361 154.16029358 C47.64191798 152.20067029 51.57644361 150.24633456 55.5168457 148.3034668 C63.87773442 144.16583583 72.02142944 139.84677722 80 135 C79.13555772 130.74283576 76.90169307 128.09726932 74.1875 124.8125 C67.73749518 116.80523117 61.84947827 108.45139424 56 100 C55.52530273 99.31615234 55.05060547 98.63230469 54.56152344 97.92773438 C53.16328438 95.91202831 51.76817782 93.89420708 50.375 91.875 C49.98054687 91.30346191 49.58609375 90.73192383 49.1796875 90.14306641 C38.75562239 74.95383371 28.72390234 59.49291086 18.59521484 44.10644531 C17.96953613 43.15608398 17.34385742 42.20572266 16.69921875 41.2265625 C15.76964355 39.81443481 15.76964355 39.81443481 14.82128906 38.3737793 C13.59809107 36.51754249 12.37350852 34.66221721 11.14746094 32.80786133 C8.39777725 28.64894585 5.66138638 24.48378728 2.97265625 20.28515625 C2.51379028 19.57609131 2.05492432 18.86702637 1.58215332 18.13647461 C0.73989551 16.83416399 -0.09440449 15.52665762 -0.91906738 14.21313477 C-2.10977654 12.32898652 -2.10977654 12.32898652 -4 10 C-12.8724403 10 -21.43202643 11.87294344 -29.73828125 14.8671875 Z " fill="#0B2F4A" transform="translate(268,131)"/>
<path d="M0 0 C0.74928772 0.00126892 1.49857544 0.00253784 2.27056885 0.00384521 C28.35705087 0.08802882 50.88141859 5.30139848 74.1875 17.1875 C74.1875 17.8475 74.1875 18.5075 74.1875 19.1875 C74.91066406 19.4659375 75.63382813 19.744375 76.37890625 20.03125 C98.66215928 29.20488407 121.85475252 48.73622799 133.1875 70.1875 C132.8575 70.8475 132.5275 71.5075 132.1875 72.1875 C131.8064209 71.79071045 131.4253418 71.3939209 131.03271484 70.98510742 C109.85436478 49.05694126 85.8193386 32.65469674 57.19384766 21.94067383 C55.70390787 21.38135718 54.2200859 20.80568696 52.73974609 20.22143555 C45.74422018 17.53701772 38.79246523 15.87961049 31.4375 14.5 C30.35339844 14.28794922 29.26929688 14.07589844 28.15234375 13.85742188 C25.16748538 13.27976613 22.17946208 12.72698528 19.1875 12.1875 C18.03507813 11.97867188 16.88265625 11.76984375 15.6953125 11.5546875 C-28.70482153 6.907012 -71.78578637 20.85111518 -106.4375 48.5625 C-108.24095845 50.09035575 -110.03210762 51.63282688 -111.8125 53.1875 C-112.32522461 53.62787598 -112.83794922 54.06825195 -113.36621094 54.52197266 C-121.4655904 61.51468015 -128.26642259 68.98006899 -134.61621094 77.58691406 C-135.66222025 78.98643183 -136.75342417 80.35193873 -137.8515625 81.7109375 C-152.27875016 100.05662057 -161.33155486 123.43404403 -165.8125 146.1875 C-165.99458008 147.0026709 -166.17666016 147.8178418 -166.36425781 148.65771484 C-168.22861033 157.9778217 -168.18470674 167.32625822 -168.18310547 176.79296875 C-168.18744954 179.65426519 -168.22378853 182.5139779 -168.26171875 185.375 C-168.51125971 226.19506461 -151.00131547 262.04954185 -125.44140625 293.03125 C-123.8125 295.1875 -123.8125 295.1875 -122.8515625 297.18359375 C-111.5937129 318.89516084 -76.36516639 332.82222239 -54.66015625 339.91015625 C-19.03385524 351.09250172 19.80109594 352.31152911 55.1875 339.1875 C56.63276748 338.67955938 58.07808193 338.1717524 59.5234375 337.6640625 C83.699717 328.94260439 104.29481013 314.55105013 122.1875 296.1875 C122.744375 295.67574219 123.30125 295.16398437 123.875 294.63671875 C140.99269203 278.51985952 151.60141369 256.69279606 160.1875 235.1875 C160.45433594 234.54216309 160.72117187 233.89682617 160.99609375 233.23193359 C165.38021739 222.60635826 167.37360467 211.48683218 169.1875 200.1875 C169.3632959 199.09598633 169.5390918 198.00447266 169.72021484 196.87988281 C170.20889452 193.01844529 170.40039244 189.21023724 170.4609375 185.32421875 C170.47351089 184.58332504 170.48608429 183.84243134 170.4990387 183.0790863 C170.89433227 154.115483 167.57229984 124.0996322 153.9375 97.98046875 C153.56625 97.09294922 153.56625 97.09294922 153.1875 96.1875 C153.5175 95.5275 153.8475 94.8675 154.1875 94.1875 C163.77409429 111.3411776 170.98462258 128.4924672 173.1875 148.1875 C173.8475 148.1875 174.5075 148.1875 175.1875 148.1875 C175.52908347 151.7909331 175.85919816 155.39533452 176.1875 159 C176.33058594 160.50723633 176.33058594 160.50723633 176.4765625 162.04492188 C180.27867137 204.27548821 169.74131751 251.24714567 142.125 284.375 C139.76991165 287.22802132 137.54402005 290.08568075 135.4375 293.125 C132.26257768 297.44642205 128.33270489 300.89095754 124.32519531 304.41967773 C121.88091041 306.57853576 120.01041713 308.45312431 118.1875 311.1875 C117.5275 311.1875 116.8675 311.1875 116.1875 311.1875 C116.1875 311.8475 116.1875 312.5075 116.1875 313.1875 C114.53515625 314.44921875 114.53515625 314.44921875 112.25 315.875 C108.99841982 317.96349551 105.9388909 320.12909031 102.9375 322.5625 C76.8671043 343.04959852 41.6610321 355.71536564 8.625 356.875 C7.58142334 356.91334961 6.53784668 356.95169922 5.46264648 356.99121094 C-27.50576393 358.01082648 -57.92259124 350.28144766 -87.11474609 335.06884766 C-88.52354902 334.33750187 -89.94223364 333.62522828 -91.36328125 332.91796875 C-97.8968869 329.5376938 -103.54492902 324.94573132 -109.28613281 320.39355469 C-111.40368649 318.72037568 -113.54703006 317.08120558 -115.6875 315.4375 C-122.44842268 310.14473389 -128.31748749 304.80353509 -133.8125 298.1875 C-134.29025879 297.62208496 -134.76801758 297.05666992 -135.26025391 296.47412109 C-142.57121573 287.80919497 -149.32368573 279.14849597 -154.8125 269.1875 C-155.24304688 268.41245117 -155.67359375 267.63740234 -156.1171875 266.83886719 C-171.58471275 238.7772727 -179.03282409 209.98040556 -179.0625 177.875 C-179.06350708 177.11905548 -179.06451416 176.36311096 -179.06555176 175.58425903 C-179.05471431 163.53795661 -178.3124947 152.00051376 -175.8125 140.1875 C-175.67328125 139.46933105 -175.5340625 138.75116211 -175.390625 138.01123047 C-170.03388635 110.44014622 -156.60315987 84.02518706 -137.8125 63.1875 C-137.08933594 62.31158203 -137.08933594 62.31158203 -136.3515625 61.41796875 C-130.76394255 54.72645315 -124.28477868 48.99951938 -117.8125 43.1875 C-116.78382813 42.25164062 -116.78382813 42.25164062 -115.734375 41.296875 C-111.39911903 37.44781596 -106.703562 34.28788575 -101.8125 31.1875 C-100.78511719 30.53394531 -99.75773437 29.88039063 -98.69921875 29.20703125 C-67.87273599 9.89972771 -36.20703125 -0.06336054 0 0 Z " fill="#214159" transform="translate(250.8125,75.8125)"/>
<path d="M0 0 C2.16556927 -0.00217136 4.3306152 -0.02033283 6.49609375 -0.03930664 C15.51682421 -0.07619137 24.16044524 0.59694656 33.06640625 2.18530273 C33.85611816 2.32605225 34.64583008 2.46680176 35.45947266 2.61181641 C68.7313492 9.03512606 102.13262643 27.37229238 122.06640625 55.18530273 C121.73640625 55.84530273 121.40640625 56.50530273 121.06640625 57.18530273 C120.46957031 56.60264648 119.87273437 56.01999023 119.2578125 55.41967773 C102.39587471 39.4847707 82.0504118 26.71088191 60.06640625 19.18530273 C59.33260742 18.93296875 58.59880859 18.68063477 57.84277344 18.4206543 C29.9062828 9.01548537 2.05772905 6.39334064 -26.93359375 12.18530273 C-27.62324219 12.3192041 -28.31289062 12.45310547 -29.0234375 12.59106445 C-55.83215447 17.98024367 -79.71123563 31.61573233 -99.640625 50.08764648 C-101.662735 51.93751543 -103.74212687 53.64976463 -105.87109375 55.37280273 C-127.8792803 74.62996597 -142.18641127 106.06572722 -147.93359375 134.18530273 C-148.11092041 135.01376709 -148.28824707 135.84223145 -148.47094727 136.69580078 C-150.25086952 145.94166316 -150.37363337 155.11551382 -150.37109375 164.49780273 C-150.37216125 165.33645874 -150.37322876 166.17511475 -150.37432861 167.03918457 C-150.34878676 180.96911387 -149.01186981 193.80371178 -144.93359375 207.18530273 C-144.58868896 208.38872314 -144.58868896 208.38872314 -144.23681641 209.61645508 C-141.01757836 220.78240388 -136.47588556 230.99194191 -130.93359375 241.18530273 C-130.10214844 242.75538086 -130.10214844 242.75538086 -129.25390625 244.35717773 C-122.58297402 256.42230876 -113.62777627 266.7337199 -104.1484375 276.66186523 C-101.93359375 279.18530273 -101.93359375 279.18530273 -100.92578125 281.25561523 C-92.81444476 297.03120667 -62.34388282 308.03393034 -46.08886719 313.49731445 C-42.16933687 314.748474 -38.21909076 315.86731847 -34.24609375 316.93530273 C-33.51092529 317.13406006 -32.77575684 317.33281738 -32.01831055 317.53759766 C-20.99309074 320.36448389 -10.11409022 321.53114455 1.25390625 321.43530273 C2.43009521 321.42853516 3.60628418 321.42176758 4.81811523 321.41479492 C14.35097014 321.30262067 23.65977564 320.73535957 33.06640625 319.18530273 C33.75863281 319.07766602 34.45085937 318.9700293 35.1640625 318.85913086 C66.75502418 313.71032771 94.23880516 296.96663878 117.06640625 275.18530273 C117.87078125 274.4337793 118.67515625 273.68225586 119.50390625 272.90795898 C139.33156221 253.87203234 151.32704803 228.13767302 158.81640625 202.06030273 C159.01516357 201.38112793 159.2139209 200.70195312 159.41870117 200.00219727 C162.70402736 188.03532974 163.41725073 175.96297808 163.38208008 163.62719727 C163.37891852 161.3192619 163.40249534 159.01261254 163.42773438 156.70483398 C163.47071004 146.53327334 162.29461196 137.10007517 160.06640625 127.18530273 C159.89326904 126.36835938 159.72013184 125.55141602 159.54174805 124.7097168 C156.57518237 111.06116957 152.0925633 97.69029622 145.8515625 85.18920898 C145.59246094 84.52791992 145.33335937 83.86663086 145.06640625 83.18530273 C145.39640625 82.52530273 145.72640625 81.86530273 146.06640625 81.18530273 C154.04361606 93.60403595 160.13442612 106.95302355 164.06640625 121.18530273 C164.26395508 121.87076172 164.46150391 122.5562207 164.66503906 123.26245117 C168.17992257 136.01612833 168.46213939 148.79846092 168.50390625 161.93530273 C168.51007965 162.7596582 168.51625305 163.58401367 168.52261353 164.43334961 C168.74918701 211.53253162 147.79313535 251.94969953 115.328125 284.97045898 C98.53679453 301.11150279 78.06933033 311.85379959 56.2421875 319.41650391 C54.10716629 320.17090043 51.99565746 320.97270694 49.8828125 321.78686523 C35.00951055 327.3958569 18.64110697 328.65276078 2.87890625 328.68530273 C2.14606415 328.68764923 1.41322205 328.68999573 0.65817261 328.69241333 C-36.72133936 328.6434099 -73.87835846 313.7681601 -101.93359375 289.18530273 C-102.70485596 288.5145874 -102.70485596 288.5145874 -103.49169922 287.83032227 C-126.16695905 267.98861849 -141.53486535 243.49099429 -151.26538086 215.06469727 C-151.9454094 213.07731071 -151.9454094 213.07731071 -152.99609375 210.78686523 C-154.51335827 206.57645619 -155.19351141 202.20466993 -155.99609375 197.81030273 C-156.16947266 196.88991211 -156.34285156 195.96952148 -156.52148438 195.02124023 C-157.93676568 187.42969301 -159.08904997 180.04587819 -159.1015625 172.30249023 C-159.1048909 171.56636505 -159.1082193 170.83023987 -159.11164856 170.07180786 C-159.11668363 168.52045307 -159.11905795 166.96908757 -159.11889648 165.41772461 C-159.12106844 163.0874565 -159.13922046 160.75767397 -159.15820312 158.42749023 C-159.19235636 149.49249168 -158.65983597 140.98551118 -156.93359375 132.18530273 C-156.78752686 131.41347656 -156.64145996 130.64165039 -156.4909668 129.84643555 C-148.47454876 89.70329472 -123.90555632 52.89394069 -90.05810547 29.91186523 C-62.70868754 11.74772352 -33.07676469 -0.00369821 0 0 Z " fill="#0D304A" transform="translate(244.93359375,89.814697265625)"/>
<path d="M0 0 C5.01462636 6.07974991 8.5898519 13.46747115 12.3125 20.375 C13.1178418 21.85033203 13.1178418 21.85033203 13.93945312 23.35546875 C17.86303844 30.58911532 17.86303844 30.58911532 19 34 C4.41821603 41.11974429 -10.34961528 47.76706906 -25.20605469 54.2890625 C-32.84856815 57.65323899 -40.38670733 61.09550713 -47.79272461 64.95996094 C-50 66 -50 66 -52 66 C-52.8353125 64.23849609 -52.8353125 64.23849609 -53.6875 62.44140625 C-54.05302979 61.67062744 -54.41855957 60.89984863 -54.79516602 60.10571289 C-55.60401015 58.39837159 -56.41177571 56.69051893 -57.21850586 54.98217773 C-59.25250502 50.67631507 -61.29741012 46.37687881 -63.37890625 42.09375 C-63.74693359 41.3298999 -64.11496094 40.5660498 -64.49414062 39.77905273 C-65.19370041 38.32765801 -65.89921542 36.87911504 -66.61132812 35.43383789 C-68.27449279 31.96423492 -69 29.92465398 -69 26 C-49.72811111 17.52312681 -30.44865172 9.06592122 -11 1 C-10.13141357 0.63036133 -9.26282715 0.26072266 -8.36791992 -0.12011719 C-4.95146146 -1.38962088 -3.42562803 -1.32830475 0 0 Z " fill="#FCFDFD" transform="translate(259,166)"/>
<path d="M0 0 C2.98179463 1.49089732 3.75244348 4.19424692 5.14453125 7.08984375 C5.86641042 8.56117689 6.58860788 10.03235388 7.31103516 11.50341797 C7.72838928 12.35812683 8.14574341 13.21283569 8.57574463 14.09344482 C13.17038756 23.46998184 17.84576069 32.80734789 22.49957085 42.15462685 C24.26526294 45.7014938 26.02864033 49.24947365 27.78686523 52.80004883 C35.5579218 68.48875915 43.45643064 84.01740921 52.23535156 99.17529297 C55.83255689 105.39202237 59.13081153 111.75843156 62.4296875 118.13671875 C64.32253145 121.76479534 66.30259435 125.33442833 68.3203125 128.89453125 C68.87968506 129.88960693 69.43905762 130.88468262 70.01538086 131.90991211 C71.10857043 133.84841223 72.21312055 135.78056086 73.33032227 137.70532227 C73.82330811 138.58373779 74.31629395 139.46215332 74.82421875 140.3671875 C75.26854248 141.14175293 75.71286621 141.91631836 76.1706543 142.71435547 C77.49468806 146.36334107 76.44062106 148.98916346 74.9375 152.4375 C73.34228943 156.79774222 73.81958271 160.60884769 75 165 C64.32521783 160.61571447 58.59537542 152.14730432 53.16796875 142.28515625 C52.65977097 141.37798355 52.15157318 140.47081085 51.62797546 139.53614807 C46.16566206 129.67910392 41.20360488 119.58666966 36.3125 109.4375 C35.35925304 107.47199027 34.40563303 105.50666142 33.45166016 103.54150391 C30.62083534 97.70084677 27.80707509 91.85210313 25 86 C24.58502258 85.13526062 24.17004517 84.27052124 23.74249268 83.37957764 C15.99979428 67.23280332 8.38053367 51.03163087 1.0625 34.6875 C0.57185059 33.59614746 0.08120117 32.50479492 -0.42431641 31.38037109 C-3.88273326 23.56866734 -6.82515115 16.66408708 -6 8 C-4.25364203 4.85655565 -2.53137274 2.53137274 0 0 Z " fill="#C4D4FA" transform="translate(152,190)"/>
<path d="M0 0 C5.81129732 5.51084929 9.27737194 12.45367217 13.0625 19.4375 C14.2598619 21.62471545 15.45904309 23.81093607 16.66015625 25.99609375 C17.50731201 27.54659424 17.50731201 27.54659424 18.37158203 29.12841797 C20.14981147 32.26418029 22.07770753 35.25504087 24.15014648 38.20336914 C25.25708611 40.5434923 25.14476441 42.4448672 25 45 C11.44795706 52.57983792 -2.57467866 58.72802336 -16.875 64.75 C-20.14350205 66.13424405 -23.41108833 67.520623 -26.67825317 68.90802002 C-28.69084926 69.76184152 -30.70435037 70.61353445 -32.71896362 71.46258545 C-38.41336684 73.86885986 -44.02731298 76.38916444 -49.59671021 79.0737915 C-52 80 -52 80 -56 80 C-61.68198447 69.38198992 -67.33231341 58.74759291 -72.91064453 48.07470703 C-73.84598836 46.29331934 -74.79473644 44.51898108 -75.74609375 42.74609375 C-76.42865234 41.44865234 -76.42865234 41.44865234 -77.125 40.125 C-77.49882812 39.42632812 -77.87265625 38.72765625 -78.2578125 38.0078125 C-79.15519037 35.5801692 -79.13419054 33.56751241 -79 31 C-59.32399982 19.83487967 -38.37490337 10.87328718 -16.9375 3.6875 C-15.80844238 3.30851563 -14.67938477 2.92953125 -13.51611328 2.5390625 C-4.20073054 -0.47393754 -4.20073054 -0.47393754 0 0 Z M-10.76098633 8.40185547 C-11.48800247 8.71024857 -12.21501862 9.01864166 -12.96406555 9.33638 C-13.74549423 9.67654648 -14.52692291 10.01671295 -15.33203125 10.3671875 C-16.15313889 10.71794846 -16.97424652 11.06870941 -17.82023621 11.43009949 C-20.487343 12.57150331 -23.14991934 13.72308246 -25.8125 14.875 C-27.63191146 15.65610016 -29.45157343 16.43661704 -31.27148438 17.21655273 C-36.51855324 19.46795337 -41.75991823 21.73239423 -47 24 C-48.37807195 24.5955878 -49.75616269 25.19113213 -51.13427734 25.78662109 C-57.42952886 28.50928136 -63.71875361 31.24518612 -70 34 C-70 37.87937276 -69.68975412 39.13117703 -68.05859375 42.45703125 C-67.43476807 43.74540894 -67.43476807 43.74540894 -66.79833984 45.05981445 C-66.12472412 46.4223938 -66.12472412 46.4223938 -65.4375 47.8125 C-64.52162679 49.69766964 -63.60626594 51.58308829 -62.69140625 53.46875 C-62.23652832 54.40074219 -61.78165039 55.33273438 -61.31298828 56.29296875 C-59.45963926 60.11407956 -57.66183793 63.9599425 -55.875 67.8125 C-55.58036865 68.44583252 -55.2857373 69.07916504 -54.98217773 69.73168945 C-54.32060297 71.15406513 -53.66014959 72.57696232 -53 74 C-47.44064261 72.35581097 -42.4335843 69.86065775 -37.25 67.3125 C-25.50894586 61.60897888 -13.59120718 56.34477338 -1.62792969 51.12817383 C4.99552489 48.23606139 11.58481773 45.33723302 18 42 C15.79171826 36.12169297 12.69170126 30.7329404 9.66015625 25.25195312 C8.62680651 23.37827557 7.60635247 21.49793309 6.5859375 19.6171875 C5.92526432 18.41883763 5.26383142 17.22090622 4.6015625 16.0234375 C4.00682129 14.93981934 3.41208008 13.85620117 2.79931641 12.73974609 C1.03780541 10.05756476 -0.20917021 8.54851684 -3 7 C-6.51171004 7 -7.74549706 7.10550653 -10.76098633 8.40185547 Z " fill="#0C304B" transform="translate(260,158)"/>
<path d="M0 0 C0.495 1.485 0.495 1.485 1 3 C-11.3075184 10.3374506 -24.04377858 16.20083196 -37.1875 21.875 C-48.79455699 26.88921715 -60.29455775 31.99009365 -71.5078125 37.84375 C-72.36525558 38.29040009 -73.22269867 38.73705017 -74.10612488 39.19723511 C-86.54620691 45.80477645 -98.37597506 54.78876758 -107 66 C-106.50298584 65.62302979 -106.00597168 65.24605957 -105.49389648 64.85766602 C-95.64858478 57.41961512 -85.83100143 50.20649722 -75.06298828 44.16015625 C-73.61913901 43.34818326 -72.18039758 42.527091 -70.74560547 41.69921875 C-55.51967122 32.92275168 -39.69452255 25.69112193 -23.66548157 18.54017639 C-18.22597686 16.11098376 -12.82053461 13.61458047 -7.4375 11.0625 C-6.75389404 10.73862305 -6.07028809 10.41474609 -5.3659668 10.08105469 C-3.90967803 9.38940113 -2.4546386 8.69511738 -1 8 C-1.59399414 11.2878418 -1.59399414 11.2878418 -3 15 C-5.84155273 16.90942383 -5.84155273 16.90942383 -9.49609375 18.39453125 C-10.86652334 18.97679748 -12.2361185 19.56103057 -13.60498047 20.14697266 C-14.32530457 20.44669983 -15.04562866 20.746427 -15.78778076 21.05523682 C-19.51287711 22.64609808 -23.14370541 24.42710004 -26.78515625 26.19921875 C-28.30988656 26.93507781 -29.83462627 27.67091738 -31.359375 28.40673828 C-51.38506876 38.10956879 -71.24382194 47.96773483 -90 60 C-85.92340133 58.44760192 -82.04043087 56.5851916 -78.14941406 54.62353516 C-77.48039062 54.2882933 -76.81136719 53.95305145 -76.12207031 53.60765076 C-74.67517402 52.88230605 -73.22874041 52.15603781 -71.78272247 51.42894363 C-69.48726671 50.27480414 -67.19054999 49.1232098 -64.89349365 47.97225952 C-59.18619111 45.11193991 -53.4810577 42.24730406 -47.77587891 39.38275146 C-42.95549359 36.96264965 -38.13426954 34.54423377 -33.31194305 32.12800217 C-31.06180314 30.99971754 -28.81289351 29.86900753 -26.56402588 28.7381897 C-7.1605157 19 -7.1605157 19 -4 19 C-4.59616043 21.69941442 -5.32131782 23.49482659 -7.57568359 25.17285156 C-9.74591163 26.40420954 -11.94708715 27.52632084 -14.1875 28.625 C-15.02756592 29.05248535 -15.86763184 29.4799707 -16.7331543 29.92041016 C-24.16092374 33.66933474 -31.69573875 37.19951205 -39.22167969 40.74584961 C-47.04311023 44.4627907 -54.6312667 48.53139028 -62.20874023 52.71899414 C-72.88962156 58.61785232 -83.71328979 64.06863556 -94.875 69 C-95.55997559 69.30333252 -96.24495117 69.60666504 -96.95068359 69.91918945 C-101.75067266 72 -101.75067266 72 -104 72 C-104 72.66 -104 73.32 -104 74 C-94.88582693 71.85697175 -86.87654117 69.32350738 -78.51171875 65.07421875 C-77.68285156 64.71972656 -76.85398437 64.36523438 -76 64 C-75.01 64.495 -75.01 64.495 -74 65 C-96.41905604 78.5455466 -96.41905604 78.5455466 -108.9765625 78.56640625 C-111.77778013 77.78228163 -112.55029011 76.46270593 -114 74 C-114.89455778 69.07993223 -113.36434418 66.01696585 -110.640625 62.05859375 C-103.70802038 53.35982558 -94.10626112 48.04691895 -84.63427734 42.53466797 C-82.87200418 41.50800911 -81.11451276 40.47309985 -79.36181641 39.43017578 C-64.10309468 30.36816764 -48.33830143 22.77486793 -32.1809082 15.48022461 C-30.59054327 14.76180893 -29.00029133 14.04314305 -27.41015625 13.32421875 C-26.25299858 12.80111366 -26.25299858 12.80111366 -25.07246399 12.2674408 C-16.60013408 8.40882774 -8.29530082 4.22296081 0 0 Z " fill="#F2F5F7" transform="translate(348,276)"/>
<path d="M0 0 C3.58702661 1.46814142 5.40373148 3.38434289 7.75 6.4375 C8.36359375 7.21996094 8.9771875 8.00242187 9.609375 8.80859375 C11 11 11 11 11 14 C-0.17676801 20.221261 -11.40651398 26.29617073 -22.875 31.96484375 C-23.86935059 32.45651031 -24.86370117 32.94817688 -25.88818359 33.45474243 C-29.93587726 35.45134893 -33.98647854 37.4418867 -38.04101562 39.42456055 C-71.24840249 55.56061986 -71.24840249 55.56061986 -100.51171875 77.78515625 C-102 79 -102 79 -104 79 C-104.46247579 75.51559333 -104.14790739 74.21463485 -102.12109375 71.2734375 C-86.34763938 54.23718839 -66.71085265 44.52054825 -46.24301147 34.05029297 C-44.9456455 33.38658584 -43.6486277 32.7221977 -42.35195923 32.05712891 C-39.25543725 30.46891327 -36.15585304 28.88792789 -33.04638672 27.32519531 C-20.3430592 21.00609199 -20.3430592 21.00609199 -9.29150391 12.26611328 C-8 11 -8 11 -6 11 C-5.62875 10.2265625 -5.62875 10.2265625 -5.25 9.4375 C-3.60418384 6.22815849 -1.8023904 3.12414336 0 0 Z " fill="#FAFBFC" transform="translate(337,252)"/>
<path d="M0 0 C0 0.33 0 0.66 0 1 C-0.71841064 1.1451001 -1.43682129 1.2902002 -2.17700195 1.43969727 C-29.4724194 7.02764978 -56.05639551 14.98457162 -78 33 C-78.50402344 33.40154297 -79.00804687 33.80308594 -79.52734375 34.21679688 C-106.29408832 55.55958481 -124.49787104 84.92055059 -133 118 C-133.31066406 119.18207031 -133.62132812 120.36414063 -133.94140625 121.58203125 C-137.04816462 135.4348717 -136.75014433 149.86451885 -137 164 C-137.33 164 -137.66 164 -138 164 C-138.33 158.06 -138.66 152.12 -139 146 C-139.33 146 -139.66 146 -140 146 C-140.54870229 137.36301947 -138.94974212 129.37851782 -137 121 C-136.83371094 120.26040039 -136.66742188 119.52080078 -136.49609375 118.75878906 C-129.15148087 86.53770031 -110.93542815 55.82204889 -85 35 C-84.05769531 34.23171875 -83.11539063 33.4634375 -82.14453125 32.671875 C-59.52052656 14.54945993 -29.69293806 -1.4683321 0 0 Z " fill="#ECEFF4" transform="translate(234,100)"/>
<path d="M0 0 C0.99 0.495 0.99 0.495 2 1 C1 4 1 4 -1.31762695 5.39672852 C-2.36394287 5.88584717 -3.41025879 6.37496582 -4.48828125 6.87890625 C-5.07865173 7.15943344 -5.66902222 7.43996063 -6.27728271 7.72898865 C-7.58716233 8.35065678 -8.89916581 8.96786359 -10.21292114 9.58129883 C-13.89769984 11.3033152 -17.56542049 13.06098817 -21.234375 14.81640625 C-22.45949547 15.40139389 -22.45949547 15.40139389 -23.70936584 15.99819946 C-35.90400805 21.84198784 -47.97470405 27.93931413 -60.0625 34 C-61.2597862 34.59984277 -62.45710259 35.19962528 -63.65444946 35.79934692 C-70.43763675 39.19690201 -77.21964271 42.59680072 -84 46 C-84.33 45.34 -84.66 44.68 -85 44 C-60.94585776 29.75117929 -36.31656109 16.83900792 -11 5 C-9.96117676 4.50145508 -8.92235352 4.00291016 -7.85205078 3.48925781 C-6.86060059 3.02100586 -5.86915039 2.55275391 -4.84765625 2.0703125 C-3.96215088 1.64766113 -3.07664551 1.22500977 -2.16430664 0.78955078 C-1.09297485 0.39872314 -1.09297485 0.39872314 0 0 Z " fill="#183A57" transform="translate(341,292)"/>
<path d="M0 0 C0.495 1.485 0.495 1.485 1 3 C-11.3075184 10.3374506 -24.04377858 16.20083196 -37.1875 21.875 C-48.78238275 26.88395791 -60.27611075 31.97832223 -71.484375 37.8125 C-72.33867599 38.25496063 -73.19297699 38.69742126 -74.07316589 39.15328979 C-80.10796443 42.35141935 -85.44635227 45.96600584 -90.72265625 50.3203125 C-92.91116007 51.93447484 -94.34268815 52.59495939 -97 53 C-94.83879774 48.75740488 -92.74188718 46.87532339 -88.6171875 44.546875 C-87.54202881 43.93263672 -86.46687012 43.31839844 -85.35913086 42.68554688 C-84.20936768 42.04681641 -83.05960449 41.40808594 -81.875 40.75 C-80.67483248 40.07424058 -79.47504676 39.39780263 -78.27563477 38.72070312 C-75.90970688 37.38905309 -73.53913728 36.06633557 -71.16357422 34.75195312 C-68.6549646 33.3627123 -66.15588899 31.9589747 -63.66015625 30.546875 C-52.84107116 24.53580533 -41.4856993 19.61245868 -30.20703125 14.54077148 C-20.00384524 9.94803135 -9.93319044 5.1552001 0 0 Z " fill="#E0E6F0" transform="translate(348,276)"/>
<path d="M0 0 C21.65529652 4.3954188 42.70477272 11.89826068 61.38134766 23.83862305 C61.87634766 24.82862305 61.87634766 24.82862305 62.38134766 25.83862305 C58.32626103 25.2645158 55.68995883 23.97343399 52.25634766 21.77612305 C39.8889072 14.37393578 26.33839807 9.30673861 12.38134766 5.83862305 C11.41068359 5.56405273 10.44001953 5.28948242 9.43994141 5.0065918 C-6.98895835 0.65839538 -24.7109999 0.6407339 -41.61865234 -0.16137695 C-31.64109734 -6.81308029 -11.22812137 -2.0994198 0 0 Z " fill="#DFE4EB" transform="translate(276.61865234375,100.161376953125)"/>
<path d="M0 0 C0.99 0.495 0.99 0.495 2 1 C-5.79682206 6.71766951 -14.26916928 10.92587927 -23 15 C-23.99797607 15.46672119 -23.99797607 15.46672119 -25.01611328 15.94287109 C-43.84378026 24.58667104 -64.84774637 29.95637104 -85.5625 30.6875 C-86.59882568 30.7272998 -87.63515137 30.76709961 -88.70288086 30.80810547 C-100.21671824 31.17851908 -111.60586597 30.74838468 -123 29 C-123 28.67 -123 28.34 -123 28 C-122.4267247 28.00444122 -121.8534494 28.00888245 -121.26280212 28.01345825 C-115.27654522 28.05783025 -109.29033533 28.0879239 -103.30395508 28.10986328 C-101.07216493 28.11989816 -98.84038785 28.13352907 -96.60864258 28.15087891 C-93.39401007 28.17523761 -90.17955197 28.18650847 -86.96484375 28.1953125 C-85.47693581 28.21079636 -85.47693581 28.21079636 -83.95896912 28.22659302 C-78.53501002 28.22746426 -74.13605344 27.73820547 -69 26 C-67.67300405 25.71265186 -66.34131932 25.44506028 -65.00390625 25.2109375 C-42.46339673 21.01284102 -21.07774393 13.49988375 -1.8203125 0.93359375 C-1.21960938 0.62550781 -0.61890625 0.31742187 0 0 Z " fill="#E0E4E8" transform="translate(345,402)"/>
<path d="M0 0 C0.66 0 1.32 0 2 0 C1.41221554 3.92114107 0.14097591 7.31919422 -1.32373047 10.97192383 C-10.02088152 32.94862048 -11.87741545 54.63682716 -12 78 C-12.33 78 -12.66 78 -13 78 C-13.33 72.06 -13.66 66.12 -14 60 C-14.33 60 -14.66 60 -15 60 C-15.54851892 51.3659059 -13.95803003 43.3746377 -12 35 C-11.82839355 34.24976563 -11.65678711 33.49953125 -11.47998047 32.7265625 C-8.80375107 21.20849211 -5.104106 10.66419841 0 0 Z " fill="#E3E8EF" transform="translate(109,186)"/>
<path d="M0 0 C0.33 0 0.66 0 1 0 C1.34158347 3.6034331 1.67169816 7.20783452 2 10.8125 C2.09539062 11.81732422 2.19078125 12.82214844 2.2890625 13.85742188 C5.02137266 44.2055812 1.32804496 78.15826228 -14 105 C-15.24249796 101.27250611 -14.63991412 100.71431858 -13 97.25 C-10.41553874 91.27253094 -8.32446059 85.21286425 -6.375 79 C-6.08625 78.11860352 -5.7975 77.23720703 -5.5 76.32910156 C-0.03367271 58.56980659 0.41383989 40.67890692 0.1875 22.25 C0.17240179 20.07683236 0.15872262 17.90365438 0.14648438 15.73046875 C0.11394128 10.48671637 0.06245286 5.24347791 0 0 Z " fill="#D5DBDF" transform="translate(425,224)"/>
<path d="M0 0 C19.33400286 2.83192447 40.49852124 25.10806093 52.5625 38.9375 C54 41 54 41 54 43 C50.29279321 41.5121853 48.56613881 39.47594428 46.1875 36.3125 C33.92282969 20.61102647 17.37445776 10.33820985 0 1 C0 0.67 0 0.34 0 0 Z " fill="#EDF0F2" transform="translate(325,94)"/>
<path d="M0 0 C-0.33 0.99 -0.66 1.98 -1 3 C-22.12616486 7.93979443 -44.57316659 8.2878626 -66 5 C-66 4.67 -66 4.34 -66 4 C-65.4267247 4.00444122 -64.8534494 4.00888245 -64.26280212 4.01345825 C-58.27654522 4.05783025 -52.29033533 4.0879239 -46.30395508 4.10986328 C-44.07216493 4.11989816 -41.84038785 4.13352907 -39.60864258 4.15087891 C-36.39401007 4.17523761 -33.17955197 4.18650847 -29.96484375 4.1953125 C-28.47693581 4.21079636 -28.47693581 4.21079636 -26.95896912 4.22659302 C-21.54553281 4.22746257 -17.12209566 3.76006684 -12 2 C-10.23440177 1.60107822 -8.46382063 1.22308149 -6.6875 0.875 C-5.84574219 0.70742188 -5.00398438 0.53984375 -4.13671875 0.3671875 C-2 0 -2 0 0 0 Z " fill="#BDC6CD" transform="translate(288,426)"/>
<path d="M0 0 C0.33 0.66 0.66 1.32 1 2 C-2.91361969 2.86855207 -6.83127052 3.71732779 -10.75 4.5625 C-11.86117188 4.80935547 -12.97234375 5.05621094 -14.1171875 5.31054688 C-15.18710937 5.53935547 -16.25703125 5.76816406 -17.359375 6.00390625 C-18.34389648 6.21861572 -19.32841797 6.4333252 -20.34277344 6.65454102 C-22.94335061 6.99263516 -24.54291358 6.83856995 -27 6 C-22.84850454 3.08581299 -18.79493987 2.16362424 -13.875 1.375 C-1.93951613 -0.64650538 -1.93951613 -0.64650538 0 0 Z " fill="#E7EBF1" transform="translate(295,404)"/>
<path d="M0 0 C1 3 1 3 -0.51953125 6.5546875 C-1.2696864 8.00222222 -2.03502721 9.44195234 -2.8125 10.875 C-3.2139624 11.62644287 -3.6154248 12.37788574 -4.02905273 13.15209961 C-7.98451862 20.34323256 -12.75814969 26.70759097 -18 33 C-18 28.84815136 -15.80765301 26.5210543 -13.5 23.25 C-8.37061677 15.79886687 -4.09177392 8.05782295 0 0 Z " fill="#EAEDEF" transform="translate(409,329)"/>
<path d="M0 0 C6.60422679 5.37553343 12.50430086 11.41556807 18.48144531 17.46533203 C20.64552896 19.65237863 22.82238537 21.82643298 25 24 C15.49316113 19.74519099 7.29993465 11.11665999 1 3 C0.67 2.01 0.34 1.02 0 0 Z " fill="#E8EBEE" transform="translate(115,370)"/>
<path d="M0 0 C0.33 0 0.66 0 1 0 C1 9.9 1 19.8 1 30 C0.67 30 0.34 30 0 30 C-0.33 24.06 -0.66 18.12 -1 12 C-1.33 12 -1.66 12 -2 12 C-2.05395478 10.37536158 -2.09277195 8.75021459 -2.125 7.125 C-2.14820312 6.22007812 -2.17140625 5.31515625 -2.1953125 4.3828125 C-2 2 -2 2 0 0 Z " fill="#D3DDF1" transform="translate(96,234)"/>
<path d="M0 0 C6.16075539 3.38841546 9.82011164 8.44096066 14 14 C13.34 14.66 12.68 15.32 12 16 C9.99397361 13.71336873 7.99508435 11.42114438 6 9.125 C5.14148438 8.14853516 5.14148438 8.14853516 4.265625 7.15234375 C3.72421875 6.52714844 3.1828125 5.90195312 2.625 5.2578125 C2.12226562 4.6817627 1.61953125 4.10571289 1.1015625 3.51220703 C0 2 0 2 0 0 Z " fill="#607788" transform="translate(113,357)"/>
<path d="M0 0 C-2 2 -2 2 -4.61376953 2.04345703 C-6.2319458 1.90206299 -6.2319458 1.90206299 -7.8828125 1.7578125 C-9.04941406 1.66113281 -10.21601563 1.56445312 -11.41796875 1.46484375 C-12.64128906 1.35269531 -13.86460937 1.24054688 -15.125 1.125 C-16.35605469 1.02058594 -17.58710938 0.91617188 -18.85546875 0.80859375 C-21.90459995 0.54859031 -24.95252561 0.2786515 -28 0 C-28 -0.33 -28 -0.66 -28 -1 C-18.30438006 -2.08284415 -9.58184631 -1.76507695 0 0 Z " fill="#D5DFF3" transform="translate(281,101)"/>
<path d="M0 0 C0 0.33 0 0.66 0 1 C-7.47941368 2.94210433 -14.25847464 4.39363688 -22 4 C-21.67 3.34 -21.34 2.68 -21 2 C-13.93910871 -0.08354169 -7.32557399 -0.22311393 0 0 Z " fill="#F0F2F6" transform="translate(234,100)"/>
<path d="M0 0 C4.33333333 4.33333333 8.66666667 8.66666667 13 13 C12.34 13.66 11.68 14.32 11 15 C6.41853326 10.61869443 2.27094033 6.45156722 -1 1 C-0.67 0.67 -0.34 0.34 0 0 Z " fill="#4B6579" transform="translate(130,356)"/>
<path d="M0 0 C0.66 0.33 1.32 0.66 2 1 C2 1.66 2 2.32 2 3 C-3.61 5.64 -9.22 8.28 -15 11 C-15 10.34 -15 9.68 -15 9 C-12.56943154 7.33526758 -10.15685489 5.80712601 -7.625 4.3125 C-6.92632812 3.88388672 -6.22765625 3.45527344 -5.5078125 3.01367188 C-3.71097069 1.94074999 -1.85830122 0.96255827 0 0 Z " fill="#294966" transform="translate(271,327)"/>
<path d="M0 0 C0.66 0.33 1.32 0.66 2 1 C0.71520959 2.50589388 -0.57804082 4.00457375 -1.875 5.5 C-2.59429687 6.3353125 -3.31359375 7.170625 -4.0546875 8.03125 C-4.69664062 8.6809375 -5.33859375 9.330625 -6 10 C-6.66 10 -7.32 10 -8 10 C-8 10.66 -8 11.32 -8 12 C-9.96147874 13.38938077 -11.96166576 14.7260411 -14 16 C-14.66 15.67 -15.32 15.34 -16 15 C-14.64455078 13.75283203 -14.64455078 13.75283203 -13.26171875 12.48046875 C-12.07028184 11.38284577 -10.87887729 10.28518768 -9.6875 9.1875 C-9.09259766 8.64029297 -8.49769531 8.09308594 -7.88476562 7.52929688 C-7.30791016 6.99755859 -6.73105469 6.46582031 -6.13671875 5.91796875 C-5.60780029 5.43094482 -5.07888184 4.9439209 -4.53393555 4.44213867 C-2.9907165 2.99127207 -1.48984144 1.50546232 0 0 Z " fill="#E3E7EA" transform="translate(375,377)"/>
<path d="M0 0 C0.66 0.33 1.32 0.66 2 1 C-6.88530928 11.91623711 -6.88530928 11.91623711 -12 14 C-10.41332422 10.09714233 -7.86649519 7.66479018 -4.875 4.75 C-3.96492187 3.85796875 -3.05484375 2.9659375 -2.1171875 2.046875 C-1.41851562 1.37140625 -0.71984375 0.6959375 0 0 Z " fill="#1B3D5A" transform="translate(252,329)"/>
<path d="M0 0 C6.08149603 2.16646423 12.09931767 4.37747452 18 7 C17.01 7.66 16.02 8.32 15 9 C13.19067383 8.58447266 13.19067383 8.58447266 11.20703125 7.6640625 C10.1387207 7.18066406 10.1387207 7.18066406 9.04882812 6.6875 C8.31083984 6.336875 7.57285156 5.98625 6.8125 5.625 C6.06291016 5.28210938 5.31332031 4.93921875 4.54101562 4.5859375 C2.68830649 3.73628745 0.84337454 2.86971641 -1 2 C-0.67 1.34 -0.34 0.68 0 0 Z " fill="#E1E7F2" transform="translate(304,108)"/>
<path d="M0 0 C2.8203125 0.2421875 2.8203125 0.2421875 6.125 0.875 C7.22070312 1.07867187 8.31640625 1.28234375 9.4453125 1.4921875 C10.28835937 1.65976562 11.13140625 1.82734375 12 2 C11.01 2.495 11.01 2.495 10 3 C10 3.66 10 4.32 10 5 C1.42857143 4.14285714 1.42857143 4.14285714 -2 2 C-1.34 1.34 -0.68 0.68 0 0 Z " fill="#DDE3EB" transform="translate(214,405)"/>
<path d="M0 0 C0 4.70847601 -2.9525759 7.5743242 -6 11 C-8.875 13 -8.875 13 -11 14 C-9.42219077 10.28954753 -7.09296752 7.70093616 -4.375 4.75 C-3.55773437 3.85796875 -2.74046875 2.9659375 -1.8984375 2.046875 C-1.27195312 1.37140625 -0.64546875 0.6959375 0 0 Z " fill="#ECEEF0" transform="translate(389,362)"/>
<path d="M0 0 C-1.59370671 1.36646148 -3.20032982 2.71787166 -4.8125 4.0625 C-6.15248047 5.19365234 -6.15248047 5.19365234 -7.51953125 6.34765625 C-8.74736328 7.16556641 -8.74736328 7.16556641 -10 8 C-10.99 7.67 -11.98 7.34 -13 7 C-4.84931507 -1.61643836 -4.84931507 -1.61643836 0 0 Z " fill="#E4E9F2" transform="translate(264,321)"/>
<path d="M0 0 C-1.11328125 1.48828125 -1.11328125 1.48828125 -3 3 C-5.91796875 3.29296875 -5.91796875 3.29296875 -9.1875 3.1875 C-10.27417969 3.16042969 -11.36085938 3.13335937 -12.48046875 3.10546875 C-13.72763672 3.05326172 -13.72763672 3.05326172 -15 3 C-14.67 2.34 -14.34 1.68 -14 1 C-9.30643695 0.06128739 -4.77567869 -0.09746283 0 0 Z " fill="#F8F9FE" transform="translate(271,408)"/>
<path d="M0 0 C-0.33 0.99 -0.66 1.98 -1 3 C-5.0527516 3.98248524 -8.83861737 4.08159574 -13 4 C-12.67 3.34 -12.34 2.68 -12 2 C-9.78515625 1.3671875 -9.78515625 1.3671875 -7.0625 0.875 C-6.16660156 0.70742188 -5.27070313 0.53984375 -4.34765625 0.3671875 C-2 0 -2 0 0 0 Z " fill="#8A9BA7" transform="translate(288,426)"/>
<path d="M0 0 C0.66 0.33 1.32 0.66 2 1 C1.67 1.99 1.34 2.98 1 4 C-2.5625 5.6875 -2.5625 5.6875 -6 7 C-6.33 6.34 -6.66 5.68 -7 5 C-4.88437775 2.67281553 -2.94982021 1.14186589 0 0 Z " fill="#214260" transform="translate(341,292)"/>
<path d="M0 0 C0.66 0.33 1.32 0.66 2 1 C1.67 1.99 1.34 2.98 1 4 C-2.5625 5.6875 -2.5625 5.6875 -6 7 C-6.33 6.34 -6.66 5.68 -7 5 C-4.88437775 2.67281553 -2.94982021 1.14186589 0 0 Z " fill="#D9E0EA" transform="translate(336,282)"/>
<path d="M0 0 C0.66 0 1.32 0 2 0 C1.67 3.63 1.34 7.26 1 11 C0.01 11.33 -0.98 11.66 -2 12 C-1.34 8.04 -0.68 4.08 0 0 Z " fill="#EDF1F7" transform="translate(99,212)"/>
<path d="M0 0 C4.31385796 3.54352618 5.9721398 7.95192247 8 13 C7.01 13 6.02 13 5 13 C4.16209211 11.21046815 3.32980604 9.41830305 2.5 7.625 C1.80390625 6.12839844 1.80390625 6.12839844 1.09375 4.6015625 C0 2 0 2 0 0 Z " fill="#25455C" transform="translate(390,171)"/>
<path d="M0 0 C3.53600465 1.91135386 5.78972846 3.62642766 8 7 C7.67 7.66 7.34 8.32 7 9 C3.26115668 6.34345343 1.35021826 4.41889613 0 0 Z " fill="#22425A" transform="translate(108,350)"/>
<path d="M0 0 C1.75 0.875 1.75 0.875 2.75 2.875 C-0.55 3.205 -3.85 3.535 -7.25 3.875 C-2.85 -0.15833333 -2.85 -0.15833333 0 0 Z " fill="#E0E5EB" transform="translate(275.25,407.125)"/>
<path d="M0 0 C0 0.66 0 1.32 0 2 C-2.95664519 3.4783226 -5.74229737 3.06032783 -9 3 C-7.14340032 -0.71319936 -3.69365381 -0.09982848 0 0 Z " fill="#F2F5F7" transform="translate(285,406)"/>
<path d="M0 0 C1.8125 0.1875 1.8125 0.1875 4 1 C5.75 3.5625 5.75 3.5625 7 6 C6.01 6 5.02 6 4 6 C1.8125 3 1.8125 3 0 0 Z " fill="#A2AFB9" transform="translate(120,366)"/>
<path d="M0 0 C0.66 0.33 1.32 0.66 2 1 C2 1.66 2 2.32 2 3 C-1.465 4.485 -1.465 4.485 -5 6 C-4.75 4.125 -4.75 4.125 -4 2 C-2.0625 0.6875 -2.0625 0.6875 0 0 Z " fill="#ECF0F6" transform="translate(328,286)"/>
<path d="M0 0 C0 0.33 0 0.66 0 1 C-2.97 1.66 -5.94 2.32 -9 3 C-9.33 2.01 -9.66 1.02 -10 0 C-6.30581799 -1.231394 -3.7943739 -0.64432764 0 0 Z " fill="#E1E6EE" transform="translate(215,104)"/>
<path d="M0 0 C3.36720387 1.39332574 4.9859524 2.9789286 7 6 C4 6 4 6 1.8125 4.125 C0 2 0 2 0 0 Z " fill="#8596A3" transform="translate(136,364)"/>
<path d="M0 0 C0.66 0.33 1.32 0.66 2 1 C-0.36292656 3.52588702 -1.66462511 4.88820837 -5 6 C-4.75 4.125 -4.75 4.125 -4 2 C-2.0625 0.6875 -2.0625 0.6875 0 0 Z " fill="#D9E0EA" transform="translate(308,295)"/>
<path d="M0 0 C0.99 0.33 1.98 0.66 3 1 C3.33 2.98 3.66 4.96 4 7 C3.34 7 2.68 7 2 7 C1.67 7.66 1.34 8.32 1 9 C0.67 6.03 0.34 3.06 0 0 Z " fill="#E9EDF1" transform="translate(95,276)"/>
<path d="M0 0 C0.66 0.33 1.32 0.66 2 1 C-0.36292656 3.52588702 -1.66462511 4.88820837 -5 6 C-4.75 4.125 -4.75 4.125 -4 2 C-2.0625 0.6875 -2.0625 0.6875 0 0 Z " fill="#E4E9EE" transform="translate(184,112)"/>
<path d="M0 0 C0.66 0.33 1.32 0.66 2 1 C0 4 0 4 -2.125 4.6875 C-2.74375 4.790625 -3.3625 4.89375 -4 5 C-4.33 4.01 -4.66 3.02 -5 2 C-2.625 0.9375 -2.625 0.9375 0 0 Z " fill="#E2E7F0" transform="translate(322,289)"/>
</svg>
